<?xml version="1.0" encoding="UTF-8"?>
<svg xmlns="http://www.w3.org/2000/svg" baseProfile="full" version="1.1"><!--row 1-->
   <line stroke-width="3"
         stroke-linecap="round"
         x1="36"
         x2="42"
         y1="6"
         y2="12"
         stroke="goldenrod"/>
   <line stroke-width="3"
         stroke-linecap="round"
         x1="42"
         x2="36"
         y1="6"
         y2="12"
         stroke="goldenrod"/>
   <!--row 2-->
   <line stroke-width="3"
         stroke-linecap="round"
         x1="30"
         x2="36"
         y1="12"
         y2="18"
         stroke="goldenrod"/>
   <line stroke-width="3"
         stroke-linecap="round"
         x1="36"
         x2="30"
         y1="12"
         y2="18"
         stroke="goldenrod"/>
   <line stroke-width="3"
         stroke-linecap="round"
         x1="36"
         x2="42"
         y1="12"
         y2="18"
         stroke="goldenrod"/>
   <line stroke-width="3"
         stroke-linecap="round"
         x1="42"
         x2="36"
         y1="12"
         y2="18"
         stroke="goldenrod"/>
   <line stroke-width="3"
         stroke-linecap="round"
         x1="42"
         x2="48"
         y1="12"
         y2="18"
         stroke="goldenrod"/>
   <line stroke-width="3"
         stroke-linecap="round"
         x1="48"
         x2="42"
         y1="12"
         y2="18"
         stroke="goldenrod"/>
   <!--row 3-->
   <line stroke-width="3"
         stroke-linecap="round"
         x1="24"
         x2="30"
         y1="18"
         y2="24"
         stroke="goldenrod"/>
   <line stroke-width="3"
         stroke-linecap="round"
         x1="30"
         x2="24"
         y1="18"
         y2="24"
         stroke="goldenrod"/>
   <line stroke-width="3"
         stroke-linecap="round"
         x1="30"
         x2="36"
         y1="18"
         y2="24"
         stroke="goldenrod"/>
   <line stroke-width="3"
         stroke-linecap="round"
         x1="36"
         x2="30"
         y1="18"
         y2="24"
         stroke="goldenrod"/>
   <line stroke-width="3"
         stroke-linecap="round"
         x1="42"
         x2="48"
         y1="18"
         y2="24"
         stroke="goldenrod"/>
   <line stroke-width="3"
         stroke-linecap="round"
         x1="48"
         x2="42"
         y1="18"
         y2="24"
         stroke="goldenrod"/>
   <line stroke-width="3"
         stroke-linecap="round"
         x1="48"
         x2="54"
         y1="18"
         y2="24"
         stroke="goldenrod"/>
   <line stroke-width="3"
         stroke-linecap="round"
         x1="54"
         x2="48"
         y1="18"
         y2="24"
         stroke="goldenrod"/>
   <!--row 4-->
   <line stroke-width="3"
         stroke-linecap="round"
         x1="24"
         x2="30"
         y1="24"
         y2="30"
         stroke="goldenrod"/>
   <line stroke-width="3"
         stroke-linecap="round"
         x1="30"
         x2="24"
         y1="24"
         y2="30"
         stroke="goldenrod"/>
   <line stroke-width="3"
         stroke-linecap="round"
         x1="48"
         x2="54"
         y1="24"
         y2="30"
         stroke="goldenrod"/>
   <line stroke-width="3"
         stroke-linecap="round"
         x1="54"
         x2="48"
         y1="24"
         y2="30"
         stroke="goldenrod"/>
   <!--row 5-->
   <line stroke-width="3"
         stroke-linecap="round"
         x1="12"
         x2="18"
         y1="30"
         y2="36"
         stroke="black"/>
   <line stroke-width="3"
         stroke-linecap="round"
         x1="18"
         x2="12"
         y1="30"
         y2="36"
         stroke="black"/>
   <line stroke-width="3"
         stroke-linecap="round"
         x1="18"
         x2="24"
         y1="30"
         y2="36"
         stroke="black"/>
   <line stroke-width="3"
         stroke-linecap="round"
         x1="24"
         x2="18"
         y1="30"
         y2="36"
         stroke="black"/>
   <line stroke-width="3"
         stroke-linecap="round"
         x1="24"
         x2="30"
         y1="30"
         y2="36"
         stroke="goldenrod"/>
   <line stroke-width="3"
         stroke-linecap="round"
         x1="30"
         x2="24"
         y1="30"
         y2="36"
         stroke="goldenrod"/>
   <line stroke-width="3"
         stroke-linecap="round"
         x1="30"
         x2="36"
         y1="30"
         y2="36"
         stroke="black"/>
   <line stroke-width="3"
         stroke-linecap="round"
         x1="36"
         x2="30"
         y1="30"
         y2="36"
         stroke="black"/>
   <line stroke-width="3"
         stroke-linecap="round"
         x1="36"
         x2="42"
         y1="30"
         y2="36"
         stroke="black"/>
   <line stroke-width="3"
         stroke-linecap="round"
         x1="42"
         x2="36"
         y1="30"
         y2="36"
         stroke="black"/>
   <line stroke-width="3"
         stroke-linecap="round"
         x1="42"
         x2="48"
         y1="30"
         y2="36"
         stroke="black"/>
   <line stroke-width="3"
         stroke-linecap="round"
         x1="48"
         x2="42"
         y1="30"
         y2="36"
         stroke="black"/>
   <line stroke-width="3"
         stroke-linecap="round"
         x1="48"
         x2="54"
         y1="30"
         y2="36"
         stroke="black"/>
   <line stroke-width="3"
         stroke-linecap="round"
         x1="54"
         x2="48"
         y1="30"
         y2="36"
         stroke="black"/>
   <line stroke-width="3"
         stroke-linecap="round"
         x1="54"
         x2="60"
         y1="30"
         y2="36"
         stroke="black"/>
   <line stroke-width="3"
         stroke-linecap="round"
         x1="60"
         x2="54"
         y1="30"
         y2="36"
         stroke="black"/>
   <line stroke-width="3"
         stroke-linecap="round"
         x1="60"
         x2="66"
         y1="30"
         y2="36"
         stroke="black"/>
   <line stroke-width="3"
         stroke-linecap="round"
         x1="66"
         x2="60"
         y1="30"
         y2="36"
         stroke="black"/>
   <!--row 6-->
   <line stroke-width="3"
         stroke-linecap="round"
         x1="6"
         x2="12"
         y1="36"
         y2="42"
         stroke="black"/>
   <line stroke-width="3"
         stroke-linecap="round"
         x1="12"
         x2="6"
         y1="36"
         y2="42"
         stroke="black"/>
   <line stroke-width="3"
         stroke-linecap="round"
         x1="12"
         x2="18"
         y1="36"
         y2="42"
         stroke="black"/>
   <line stroke-width="3"
         stroke-linecap="round"
         x1="18"
         x2="12"
         y1="36"
         y2="42"
         stroke="black"/>
   <line stroke-width="3"
         stroke-linecap="round"
         x1="24"
         x2="30"
         y1="36"
         y2="42"
         stroke="goldenrod"/>
   <line stroke-width="3"
         stroke-linecap="round"
         x1="30"
         x2="24"
         y1="36"
         y2="42"
         stroke="goldenrod"/>
   <line stroke-width="3"
         stroke-linecap="round"
         x1="48"
         x2="54"
         y1="36"
         y2="42"
         stroke="goldenrod"/>
   <line stroke-width="3"
         stroke-linecap="round"
         x1="54"
         x2="48"
         y1="36"
         y2="42"
         stroke="goldenrod"/>
   <line stroke-width="3"
         stroke-linecap="round"
         x1="60"
         x2="66"
         y1="36"
         y2="42"
         stroke="black"/>
   <line stroke-width="3"
         stroke-linecap="round"
         x1="66"
         x2="60"
         y1="36"
         y2="42"
         stroke="black"/>
   <line stroke-width="3"
         stroke-linecap="round"
         x1="66"
         x2="72"
         y1="36"
         y2="42"
         stroke="black"/>
   <line stroke-width="3"
         stroke-linecap="round"
         x1="72"
         x2="66"
         y1="36"
         y2="42"
         stroke="black"/>
   <!--row 7-->
   <line stroke-width="3"
         stroke-linecap="round"
         x1="6"
         x2="12"
         y1="42"
         y2="48"
         stroke="black"/>
   <line stroke-width="3"
         stroke-linecap="round"
         x1="12"
         x2="6"
         y1="42"
         y2="48"
         stroke="black"/>
   <line stroke-width="3"
         stroke-linecap="round"
         x1="24"
         x2="30"
         y1="42"
         y2="48"
         stroke="goldenrod"/>
   <line stroke-width="3"
         stroke-linecap="round"
         x1="30"
         x2="24"
         y1="42"
         y2="48"
         stroke="goldenrod"/>
   <line stroke-width="3"
         stroke-linecap="round"
         x1="48"
         x2="54"
         y1="42"
         y2="48"
         stroke="goldenrod"/>
   <line stroke-width="3"
         stroke-linecap="round"
         x1="54"
         x2="48"
         y1="42"
         y2="48"
         stroke="goldenrod"/>
   <line stroke-width="3"
         stroke-linecap="round"
         x1="66"
         x2="72"
         y1="42"
         y2="48"
         stroke="black"/>
   <line stroke-width="3"
         stroke-linecap="round"
         x1="72"
         x2="66"
         y1="42"
         y2="48"
         stroke="black"/>
   <!--row 8-->
   <line stroke-width="3"
         stroke-linecap="round"
         x1="6"
         x2="12"
         y1="48"
         y2="54"
         stroke="black"/>
   <line stroke-width="3"
         stroke-linecap="round"
         x1="12"
         x2="6"
         y1="48"
         y2="54"
         stroke="black"/>
   <line stroke-width="3"
         stroke-linecap="round"
         x1="12"
         x2="18"
         y1="48"
         y2="54"
         stroke="black"/>
   <line stroke-width="3"
         stroke-linecap="round"
         x1="18"
         x2="12"
         y1="48"
         y2="54"
         stroke="black"/>
   <line stroke-width="3"
         stroke-linecap="round"
         x1="24"
         x2="30"
         y1="48"
         y2="54"
         stroke="goldenrod"/>
   <line stroke-width="3"
         stroke-linecap="round"
         x1="30"
         x2="24"
         y1="48"
         y2="54"
         stroke="goldenrod"/>
   <line stroke-width="3"
         stroke-linecap="round"
         x1="48"
         x2="54"
         y1="48"
         y2="54"
         stroke="goldenrod"/>
   <line stroke-width="3"
         stroke-linecap="round"
         x1="54"
         x2="48"
         y1="48"
         y2="54"
         stroke="goldenrod"/>
   <!--row 9-->
   <line stroke-width="3"
         stroke-linecap="round"
         x1="12"
         x2="18"
         y1="54"
         y2="60"
         stroke="black"/>
   <line stroke-width="3"
         stroke-linecap="round"
         x1="18"
         x2="12"
         y1="54"
         y2="60"
         stroke="black"/>
   <line stroke-width="3"
         stroke-linecap="round"
         x1="18"
         x2="24"
         y1="54"
         y2="60"
         stroke="black"/>
   <line stroke-width="3"
         stroke-linecap="round"
         x1="24"
         x2="18"
         y1="54"
         y2="60"
         stroke="black"/>
   <line stroke-width="3"
         stroke-linecap="round"
         x1="24"
         x2="30"
         y1="54"
         y2="60"
         stroke="black"/>
   <line stroke-width="3"
         stroke-linecap="round"
         x1="30"
         x2="24"
         y1="54"
         y2="60"
         stroke="black"/>
   <line stroke-width="3"
         stroke-linecap="round"
         x1="30"
         x2="36"
         y1="54"
         y2="60"
         stroke="black"/>
   <line stroke-width="3"
         stroke-linecap="round"
         x1="36"
         x2="30"
         y1="54"
         y2="60"
         stroke="black"/>
   <line stroke-width="3"
         stroke-linecap="round"
         x1="36"
         x2="42"
         y1="54"
         y2="60"
         stroke="black"/>
   <line stroke-width="3"
         stroke-linecap="round"
         x1="42"
         x2="36"
         y1="54"
         y2="60"
         stroke="black"/>
   <line stroke-width="3"
         stroke-linecap="round"
         x1="42"
         x2="48"
         y1="54"
         y2="60"
         stroke="black"/>
   <line stroke-width="3"
         stroke-linecap="round"
         x1="48"
         x2="42"
         y1="54"
         y2="60"
         stroke="black"/>
   <line stroke-width="3"
         stroke-linecap="round"
         x1="48"
         x2="54"
         y1="54"
         y2="60"
         stroke="goldenrod"/>
   <line stroke-width="3"
         stroke-linecap="round"
         x1="54"
         x2="48"
         y1="54"
         y2="60"
         stroke="goldenrod"/>
   <line stroke-width="3"
         stroke-linecap="round"
         x1="54"
         x2="60"
         y1="54"
         y2="60"
         stroke="black"/>
   <line stroke-width="3"
         stroke-linecap="round"
         x1="60"
         x2="54"
         y1="54"
         y2="60"
         stroke="black"/>
   <line stroke-width="3"
         stroke-linecap="round"
         x1="60"
         x2="66"
         y1="54"
         y2="60"
         stroke="black"/>
   <line stroke-width="3"
         stroke-linecap="round"
         x1="66"
         x2="60"
         y1="54"
         y2="60"
         stroke="black"/>
   <!--row 10-->
   <line stroke-width="3"
         stroke-linecap="round"
         x1="24"
         x2="30"
         y1="60"
         y2="66"
         stroke="goldenrod"/>
   <line stroke-width="3"
         stroke-linecap="round"
         x1="30"
         x2="24"
         y1="60"
         y2="66"
         stroke="goldenrod"/>
   <line stroke-width="3"
         stroke-linecap="round"
         x1="48"
         x2="54"
         y1="60"
         y2="66"
         stroke="goldenrod"/>
   <line stroke-width="3"
         stroke-linecap="round"
         x1="54"
         x2="48"
         y1="60"
         y2="66"
         stroke="goldenrod"/>
   <line stroke-width="3"
         stroke-linecap="round"
         x1="60"
         x2="66"
         y1="60"
         y2="66"
         stroke="black"/>
   <line stroke-width="3"
         stroke-linecap="round"
         x1="66"
         x2="60"
         y1="60"
         y2="66"
         stroke="black"/>
   <line stroke-width="3"
         stroke-linecap="round"
         x1="66"
         x2="72"
         y1="60"
         y2="66"
         stroke="black"/>
   <line stroke-width="3"
         stroke-linecap="round"
         x1="72"
         x2="66"
         y1="60"
         y2="66"
         stroke="black"/>
   <!--row 11-->
   <line stroke-width="3"
         stroke-linecap="round"
         x1="6"
         x2="12"
         y1="66"
         y2="72"
         stroke="black"/>
   <line stroke-width="3"
         stroke-linecap="round"
         x1="12"
         x2="6"
         y1="66"
         y2="72"
         stroke="black"/>
   <line stroke-width="3"
         stroke-linecap="round"
         x1="24"
         x2="30"
         y1="66"
         y2="72"
         stroke="goldenrod"/>
   <line stroke-width="3"
         stroke-linecap="round"
         x1="30"
         x2="24"
         y1="66"
         y2="72"
         stroke="goldenrod"/>
   <line stroke-width="3"
         stroke-linecap="round"
         x1="48"
         x2="54"
         y1="66"
         y2="72"
         stroke="goldenrod"/>
   <line stroke-width="3"
         stroke-linecap="round"
         x1="54"
         x2="48"
         y1="66"
         y2="72"
         stroke="goldenrod"/>
   <line stroke-width="3"
         stroke-linecap="round"
         x1="66"
         x2="72"
         y1="66"
         y2="72"
         stroke="black"/>
   <line stroke-width="3"
         stroke-linecap="round"
         x1="72"
         x2="66"
         y1="66"
         y2="72"
         stroke="black"/>
   <!--row 12-->
   <line stroke-width="3"
         stroke-linecap="round"
         x1="6"
         x2="12"
         y1="72"
         y2="78"
         stroke="black"/>
   <line stroke-width="3"
         stroke-linecap="round"
         x1="12"
         x2="6"
         y1="72"
         y2="78"
         stroke="black"/>
   <line stroke-width="3"
         stroke-linecap="round"
         x1="12"
         x2="18"
         y1="72"
         y2="78"
         stroke="black"/>
   <line stroke-width="3"
         stroke-linecap="round"
         x1="18"
         x2="12"
         y1="72"
         y2="78"
         stroke="black"/>
   <line stroke-width="3"
         stroke-linecap="round"
         x1="24"
         x2="30"
         y1="72"
         y2="78"
         stroke="goldenrod"/>
   <line stroke-width="3"
         stroke-linecap="round"
         x1="30"
         x2="24"
         y1="72"
         y2="78"
         stroke="goldenrod"/>
   <line stroke-width="3"
         stroke-linecap="round"
         x1="48"
         x2="54"
         y1="72"
         y2="78"
         stroke="goldenrod"/>
   <line stroke-width="3"
         stroke-linecap="round"
         x1="54"
         x2="48"
         y1="72"
         y2="78"
         stroke="goldenrod"/>
   <line stroke-width="3"
         stroke-linecap="round"
         x1="60"
         x2="66"
         y1="72"
         y2="78"
         stroke="black"/>
   <line stroke-width="3"
         stroke-linecap="round"
         x1="66"
         x2="60"
         y1="72"
         y2="78"
         stroke="black"/>
   <line stroke-width="3"
         stroke-linecap="round"
         x1="66"
         x2="72"
         y1="72"
         y2="78"
         stroke="black"/>
   <line stroke-width="3"
         stroke-linecap="round"
         x1="72"
         x2="66"
         y1="72"
         y2="78"
         stroke="black"/>
   <!--row 13-->
   <line stroke-width="3"
         stroke-linecap="round"
         x1="12"
         x2="18"
         y1="78"
         y2="84"
         stroke="black"/>
   <line stroke-width="3"
         stroke-linecap="round"
         x1="18"
         x2="12"
         y1="78"
         y2="84"
         stroke="black"/>
   <line stroke-width="3"
         stroke-linecap="round"
         x1="18"
         x2="24"
         y1="78"
         y2="84"
         stroke="black"/>
   <line stroke-width="3"
         stroke-linecap="round"
         x1="24"
         x2="18"
         y1="78"
         y2="84"
         stroke="black"/>
   <line stroke-width="3"
         stroke-linecap="round"
         x1="24"
         x2="30"
         y1="78"
         y2="84"
         stroke="goldenrod"/>
   <line stroke-width="3"
         stroke-linecap="round"
         x1="30"
         x2="24"
         y1="78"
         y2="84"
         stroke="goldenrod"/>
   <line stroke-width="3"
         stroke-linecap="round"
         x1="30"
         x2="36"
         y1="78"
         y2="84"
         stroke="black"/>
   <line stroke-width="3"
         stroke-linecap="round"
         x1="36"
         x2="30"
         y1="78"
         y2="84"
         stroke="black"/>
   <line stroke-width="3"
         stroke-linecap="round"
         x1="36"
         x2="42"
         y1="78"
         y2="84"
         stroke="black"/>
   <line stroke-width="3"
         stroke-linecap="round"
         x1="42"
         x2="36"
         y1="78"
         y2="84"
         stroke="black"/>
   <line stroke-width="3"
         stroke-linecap="round"
         x1="42"
         x2="48"
         y1="78"
         y2="84"
         stroke="black"/>
   <line stroke-width="3"
         stroke-linecap="round"
         x1="48"
         x2="42"
         y1="78"
         y2="84"
         stroke="black"/>
   <line stroke-width="3"
         stroke-linecap="round"
         x1="48"
         x2="54"
         y1="78"
         y2="84"
         stroke="black"/>
   <line stroke-width="3"
         stroke-linecap="round"
         x1="54"
         x2="48"
         y1="78"
         y2="84"
         stroke="black"/>
   <line stroke-width="3"
         stroke-linecap="round"
         x1="54"
         x2="60"
         y1="78"
         y2="84"
         stroke="black"/>
   <line stroke-width="3"
         stroke-linecap="round"
         x1="60"
         x2="54"
         y1="78"
         y2="84"
         stroke="black"/>
   <line stroke-width="3"
         stroke-linecap="round"
         x1="60"
         x2="66"
         y1="78"
         y2="84"
         stroke="black"/>
   <line stroke-width="3"
         stroke-linecap="round"
         x1="66"
         x2="60"
         y1="78"
         y2="84"
         stroke="black"/>
   <!--row 14-->
   <line stroke-width="3"
         stroke-linecap="round"
         x1="24"
         x2="30"
         y1="84"
         y2="90"
         stroke="goldenrod"/>
   <line stroke-width="3"
         stroke-linecap="round"
         x1="30"
         x2="24"
         y1="84"
         y2="90"
         stroke="goldenrod"/>
   <line stroke-width="3"
         stroke-linecap="round"
         x1="48"
         x2="54"
         y1="84"
         y2="90"
         stroke="goldenrod"/>
   <line stroke-width="3"
         stroke-linecap="round"
         x1="54"
         x2="48"
         y1="84"
         y2="90"
         stroke="goldenrod"/>
   <!--row 15-->
   <line stroke-width="3"
         stroke-linecap="round"
         x1="24"
         x2="30"
         y1="90"
         y2="96"
         stroke="goldenrod"/>
   <line stroke-width="3"
         stroke-linecap="round"
         x1="30"
         x2="24"
         y1="90"
         y2="96"
         stroke="goldenrod"/>
   <line stroke-width="3"
         stroke-linecap="round"
         x1="30"
         x2="36"
         y1="90"
         y2="96"
         stroke="black"/>
   <line stroke-width="3"
         stroke-linecap="round"
         x1="36"
         x2="30"
         y1="90"
         y2="96"
         stroke="black"/>
   <line stroke-width="3"
         stroke-linecap="round"
         x1="36"
         x2="42"
         y1="90"
         y2="96"
         stroke="black"/>
   <line stroke-width="3"
         stroke-linecap="round"
         x1="42"
         x2="36"
         y1="90"
         y2="96"
         stroke="black"/>
   <line stroke-width="3"
         stroke-linecap="round"
         x1="42"
         x2="48"
         y1="90"
         y2="96"
         stroke="black"/>
   <line stroke-width="3"
         stroke-linecap="round"
         x1="48"
         x2="42"
         y1="90"
         y2="96"
         stroke="black"/>
   <line stroke-width="3"
         stroke-linecap="round"
         x1="48"
         x2="54"
         y1="90"
         y2="96"
         stroke="goldenrod"/>
   <line stroke-width="3"
         stroke-linecap="round"
         x1="54"
         x2="48"
         y1="90"
         y2="96"
         stroke="goldenrod"/>
   <!--row 16-->
   <line stroke-width="3"
         stroke-linecap="round"
         x1="24"
         x2="30"
         y1="96"
         y2="102"
         stroke="goldenrod"/>
   <line stroke-width="3"
         stroke-linecap="round"
         x1="30"
         x2="24"
         y1="96"
         y2="102"
         stroke="goldenrod"/>
   <line stroke-width="3"
         stroke-linecap="round"
         x1="36"
         x2="42"
         y1="96"
         y2="102"
         stroke="black"/>
   <line stroke-width="3"
         stroke-linecap="round"
         x1="42"
         x2="36"
         y1="96"
         y2="102"
         stroke="black"/>
   <line stroke-width="3"
         stroke-linecap="round"
         x1="48"
         x2="54"
         y1="96"
         y2="102"
         stroke="goldenrod"/>
   <line stroke-width="3"
         stroke-linecap="round"
         x1="54"
         x2="48"
         y1="96"
         y2="102"
         stroke="goldenrod"/>
   <!--row 17-->
   <line stroke-width="3"
         stroke-linecap="round"
         x1="18"
         x2="24"
         y1="102"
         y2="108"
         stroke="goldenrod"/>
   <line stroke-width="3"
         stroke-linecap="round"
         x1="24"
         x2="18"
         y1="102"
         y2="108"
         stroke="goldenrod"/>
   <line stroke-width="3"
         stroke-linecap="round"
         x1="24"
         x2="30"
         y1="102"
         y2="108"
         stroke="goldenrod"/>
   <line stroke-width="3"
         stroke-linecap="round"
         x1="30"
         x2="24"
         y1="102"
         y2="108"
         stroke="goldenrod"/>
   <line stroke-width="3"
         stroke-linecap="round"
         x1="30"
         x2="36"
         y1="102"
         y2="108"
         stroke="goldenrod"/>
   <line stroke-width="3"
         stroke-linecap="round"
         x1="36"
         x2="30"
         y1="102"
         y2="108"
         stroke="goldenrod"/>
   <line stroke-width="3"
         stroke-linecap="round"
         x1="36"
         x2="42"
         y1="102"
         y2="108"
         stroke="black"/>
   <line stroke-width="3"
         stroke-linecap="round"
         x1="42"
         x2="36"
         y1="102"
         y2="108"
         stroke="black"/>
   <line stroke-width="3"
         stroke-linecap="round"
         x1="42"
         x2="48"
         y1="102"
         y2="108"
         stroke="goldenrod"/>
   <line stroke-width="3"
         stroke-linecap="round"
         x1="48"
         x2="42"
         y1="102"
         y2="108"
         stroke="goldenrod"/>
   <line stroke-width="3"
         stroke-linecap="round"
         x1="48"
         x2="54"
         y1="102"
         y2="108"
         stroke="goldenrod"/>
   <line stroke-width="3"
         stroke-linecap="round"
         x1="54"
         x2="48"
         y1="102"
         y2="108"
         stroke="goldenrod"/>
   <line stroke-width="3"
         stroke-linecap="round"
         x1="54"
         x2="60"
         y1="102"
         y2="108"
         stroke="goldenrod"/>
   <line stroke-width="3"
         stroke-linecap="round"
         x1="60"
         x2="54"
         y1="102"
         y2="108"
         stroke="goldenrod"/>
   <!--row 18-->
   <line stroke-width="3"
         stroke-linecap="round"
         x1="36"
         x2="42"
         y1="108"
         y2="114"
         stroke="black"/>
   <line stroke-width="3"
         stroke-linecap="round"
         x1="42"
         x2="36"
         y1="108"
         y2="114"
         stroke="black"/>
   <!--row 19-->
   <line stroke-width="3"
         stroke-linecap="round"
         x1="36"
         x2="42"
         y1="114"
         y2="120"
         stroke="black"/>
   <line stroke-width="3"
         stroke-linecap="round"
         x1="42"
         x2="36"
         y1="114"
         y2="120"
         stroke="black"/>
   <!--row 20-->
   <line stroke-width="3"
         stroke-linecap="round"
         x1="36"
         x2="42"
         y1="120"
         y2="126"
         stroke="black"/>
   <line stroke-width="3"
         stroke-linecap="round"
         x1="42"
         x2="36"
         y1="120"
         y2="126"
         stroke="black"/>
   <!--row 21-->
   <line stroke-width="3"
         stroke-linecap="round"
         x1="36"
         x2="42"
         y1="126"
         y2="132"
         stroke="black"/>
   <line stroke-width="3"
         stroke-linecap="round"
         x1="42"
         x2="36"
         y1="126"
         y2="132"
         stroke="black"/>
   <!--row 22-->
   <line stroke-width="3"
         stroke-linecap="round"
         x1="36"
         x2="42"
         y1="132"
         y2="138"
         stroke="black"/>
   <line stroke-width="3"
         stroke-linecap="round"
         x1="42"
         x2="36"
         y1="132"
         y2="138"
         stroke="black"/>
   <!--row 23-->
   <line stroke-width="3"
         stroke-linecap="round"
         x1="18"
         x2="24"
         y1="138"
         y2="144"
         stroke="black"/>
   <line stroke-width="3"
         stroke-linecap="round"
         x1="24"
         x2="18"
         y1="138"
         y2="144"
         stroke="black"/>
   <line stroke-width="3"
         stroke-linecap="round"
         x1="36"
         x2="42"
         y1="138"
         y2="144"
         stroke="black"/>
   <line stroke-width="3"
         stroke-linecap="round"
         x1="42"
         x2="36"
         y1="138"
         y2="144"
         stroke="black"/>
   <!--row 24-->
   <line stroke-width="3"
         stroke-linecap="round"
         x1="24"
         x2="30"
         y1="144"
         y2="150"
         stroke="black"/>
   <line stroke-width="3"
         stroke-linecap="round"
         x1="30"
         x2="24"
         y1="144"
         y2="150"
         stroke="black"/>
   <line stroke-width="3"
         stroke-linecap="round"
         x1="30"
         x2="36"
         y1="144"
         y2="150"
         stroke="black"/>
   <line stroke-width="3"
         stroke-linecap="round"
         x1="36"
         x2="30"
         y1="144"
         y2="150"
         stroke="black"/>
</svg>
